<mxfile host="Electron" modified="2024-02-12T08:31:37.603Z" agent="Mozilla/5.0 (Macintosh; Intel Mac OS X 10_15_7) AppleWebKit/537.36 (KHTML, like Gecko) draw.io/22.1.18 Chrome/120.0.6099.199 Electron/28.1.2 Safari/537.36" etag="L91zUBbzFtQYSrUGi8G3" version="22.1.18" type="device">
  <diagram id="nSzfmfLscecKr_QbmP8P" name="第 1 页">
    <mxGraphModel dx="852" dy="558" grid="0" gridSize="10" guides="1" tooltips="1" connect="1" arrows="1" fold="1" page="1" pageScale="1" pageWidth="827" pageHeight="1169" math="0" shadow="0">
      <root>
        <mxCell id="0" />
        <mxCell id="1" parent="0" />
        <mxCell id="TxYcWqxCjKPwNZm7CkKh-1" value="" style="rounded=0;whiteSpace=wrap;html=1;strokeColor=none;fillColor=none;" parent="1" vertex="1">
          <mxGeometry x="140" y="110" width="640" height="340" as="geometry" />
        </mxCell>
        <mxCell id="6l_aIuPrhvCb97CX6PBp-1" value="" style="endArrow=none;html=1;rounded=0;fontSize=24;strokeWidth=2;fontFamily=Times New Roman;" parent="1" edge="1">
          <mxGeometry width="50" height="50" relative="1" as="geometry">
            <mxPoint x="200" y="240" as="sourcePoint" />
            <mxPoint x="600" y="240" as="targetPoint" />
          </mxGeometry>
        </mxCell>
        <mxCell id="6l_aIuPrhvCb97CX6PBp-2" value="&lt;span style=&quot;font-size: 24px;&quot;&gt;发送方&lt;/span&gt;" style="text;html=1;strokeColor=none;fillColor=none;align=center;verticalAlign=middle;whiteSpace=wrap;rounded=0;fontFamily=Times New Roman;" parent="1" vertex="1">
          <mxGeometry x="665" y="220" width="90" height="30" as="geometry" />
        </mxCell>
        <mxCell id="6l_aIuPrhvCb97CX6PBp-3" value="" style="endArrow=none;html=1;rounded=0;fontSize=24;strokeWidth=2;fontFamily=Times New Roman;" parent="1" edge="1">
          <mxGeometry width="50" height="50" relative="1" as="geometry">
            <mxPoint x="200" y="330" as="sourcePoint" />
            <mxPoint x="600" y="330" as="targetPoint" />
          </mxGeometry>
        </mxCell>
        <mxCell id="6l_aIuPrhvCb97CX6PBp-4" value="&lt;span style=&quot;font-size: 24px;&quot;&gt;接收方&lt;/span&gt;" style="text;html=1;strokeColor=none;fillColor=none;align=center;verticalAlign=middle;whiteSpace=wrap;rounded=0;fontFamily=Times New Roman;" parent="1" vertex="1">
          <mxGeometry x="665" y="310" width="90" height="30" as="geometry" />
        </mxCell>
        <mxCell id="6l_aIuPrhvCb97CX6PBp-5" value="" style="endArrow=none;html=1;rounded=0;fontSize=24;exitX=0.5;exitY=0;exitDx=0;exitDy=0;fontFamily=Times New Roman;" parent="1" edge="1">
          <mxGeometry width="50" height="50" relative="1" as="geometry">
            <mxPoint x="230" y="346" as="sourcePoint" />
            <mxPoint x="230" y="310" as="targetPoint" />
          </mxGeometry>
        </mxCell>
        <mxCell id="6l_aIuPrhvCb97CX6PBp-6" value="&lt;font style=&quot;font-size: 14px;&quot;&gt;T0:&amp;nbsp;Irecv 被调用&lt;br&gt;&lt;/font&gt;" style="text;html=1;strokeColor=none;fillColor=none;align=center;verticalAlign=middle;whiteSpace=wrap;rounded=0;fontSize=14;fontFamily=Times New Roman;" parent="1" vertex="1">
          <mxGeometry x="157" y="359" width="140" height="36" as="geometry" />
        </mxCell>
        <mxCell id="6l_aIuPrhvCb97CX6PBp-7" value="&lt;span style=&quot;font-size: 14px;&quot;&gt;T2: Isend&lt;/span&gt;" style="text;html=1;strokeColor=none;fillColor=none;align=center;verticalAlign=middle;whiteSpace=wrap;rounded=0;fontSize=14;fontFamily=Times New Roman;" parent="1" vertex="1">
          <mxGeometry x="220" y="181" width="80" height="30" as="geometry" />
        </mxCell>
        <mxCell id="6l_aIuPrhvCb97CX6PBp-8" value="" style="endArrow=none;html=1;rounded=0;fontSize=24;exitX=0.5;exitY=0;exitDx=0;exitDy=0;fontFamily=Times New Roman;" parent="1" edge="1">
          <mxGeometry width="50" height="50" relative="1" as="geometry">
            <mxPoint x="270" y="257" as="sourcePoint" />
            <mxPoint x="270" y="221" as="targetPoint" />
          </mxGeometry>
        </mxCell>
        <mxCell id="6l_aIuPrhvCb97CX6PBp-9" value="" style="endArrow=none;html=1;rounded=0;fontSize=24;exitX=0.5;exitY=0;exitDx=0;exitDy=0;fontFamily=Times New Roman;" parent="1" edge="1">
          <mxGeometry width="50" height="50" relative="1" as="geometry">
            <mxPoint x="506" y="346" as="sourcePoint" />
            <mxPoint x="506" y="310" as="targetPoint" />
          </mxGeometry>
        </mxCell>
        <mxCell id="6l_aIuPrhvCb97CX6PBp-10" value="" style="endArrow=classic;html=1;rounded=0;fontSize=14;strokeWidth=2;fontFamily=Times New Roman;" parent="1" edge="1">
          <mxGeometry width="50" height="50" relative="1" as="geometry">
            <mxPoint x="174" y="143" as="sourcePoint" />
            <mxPoint x="644" y="143" as="targetPoint" />
          </mxGeometry>
        </mxCell>
        <mxCell id="6l_aIuPrhvCb97CX6PBp-11" value="时间轴" style="text;html=1;strokeColor=none;fillColor=none;align=center;verticalAlign=middle;whiteSpace=wrap;rounded=0;fontSize=24;fontFamily=Times New Roman;" parent="1" vertex="1">
          <mxGeometry x="369" y="106" width="90" height="30" as="geometry" />
        </mxCell>
        <mxCell id="6l_aIuPrhvCb97CX6PBp-12" value="&lt;span style=&quot;font-size: 14px;&quot;&gt;T3:&amp;nbsp; Isend 返回&lt;br&gt;缓冲区不可用&lt;br&gt;&lt;/span&gt;" style="text;html=1;strokeColor=none;fillColor=none;align=center;verticalAlign=middle;whiteSpace=wrap;rounded=0;fontSize=14;fontFamily=Times New Roman;" parent="1" vertex="1">
          <mxGeometry x="254" y="150" width="120" height="36" as="geometry" />
        </mxCell>
        <mxCell id="6l_aIuPrhvCb97CX6PBp-13" value="" style="endArrow=none;html=1;rounded=0;fontSize=24;exitX=0.5;exitY=0;exitDx=0;exitDy=0;fontFamily=Times New Roman;" parent="1" edge="1">
          <mxGeometry width="50" height="50" relative="1" as="geometry">
            <mxPoint x="393" y="257" as="sourcePoint" />
            <mxPoint x="393" y="221" as="targetPoint" />
          </mxGeometry>
        </mxCell>
        <mxCell id="6l_aIuPrhvCb97CX6PBp-14" value="&lt;font style=&quot;font-size: 14px;&quot;&gt;T7: 发送结束&lt;br style=&quot;font-size: 14px;&quot;&gt;&lt;/font&gt;" style="text;html=1;strokeColor=none;fillColor=none;align=center;verticalAlign=middle;whiteSpace=wrap;rounded=0;fontSize=14;fontFamily=Times New Roman;" parent="1" vertex="1">
          <mxGeometry x="440" y="356" width="130" height="30" as="geometry" />
        </mxCell>
        <mxCell id="6l_aIuPrhvCb97CX6PBp-15" value="&lt;font style=&quot;font-size: 14px;&quot;&gt;T8: wait() 返回&lt;br&gt;缓存区被填充&lt;br style=&quot;font-size: 14px;&quot;&gt;&lt;/font&gt;" style="text;html=1;strokeColor=none;fillColor=none;align=center;verticalAlign=middle;whiteSpace=wrap;rounded=0;fontSize=14;fontFamily=Times New Roman;" parent="1" vertex="1">
          <mxGeometry x="510" y="386" width="165" height="30" as="geometry" />
        </mxCell>
        <mxCell id="6l_aIuPrhvCb97CX6PBp-16" value="" style="endArrow=none;html=1;rounded=0;fontSize=24;exitX=0.5;exitY=0;exitDx=0;exitDy=0;fontFamily=Times New Roman;" parent="1" edge="1">
          <mxGeometry width="50" height="50" relative="1" as="geometry">
            <mxPoint x="516" y="346" as="sourcePoint" />
            <mxPoint x="516" y="310" as="targetPoint" />
          </mxGeometry>
        </mxCell>
        <mxCell id="6l_aIuPrhvCb97CX6PBp-17" value="" style="endArrow=classic;html=1;rounded=0;fontSize=24;exitX=0.5;exitY=0;exitDx=0;exitDy=0;fontFamily=Times New Roman;" parent="1" source="6l_aIuPrhvCb97CX6PBp-15" edge="1">
          <mxGeometry width="50" height="50" relative="1" as="geometry">
            <mxPoint x="794" y="560" as="sourcePoint" />
            <mxPoint x="520" y="350" as="targetPoint" />
          </mxGeometry>
        </mxCell>
        <mxCell id="6l_aIuPrhvCb97CX6PBp-18" value="&lt;span style=&quot;font-size: 14px;&quot;&gt;T1: Irecv 返回&lt;/span&gt;" style="text;html=1;strokeColor=none;fillColor=none;align=center;verticalAlign=middle;whiteSpace=wrap;rounded=0;fontSize=14;fontFamily=Times New Roman;" parent="1" vertex="1">
          <mxGeometry x="284" y="386" width="90" height="30" as="geometry" />
        </mxCell>
        <mxCell id="6l_aIuPrhvCb97CX6PBp-19" value="" style="endArrow=none;html=1;rounded=0;fontSize=24;exitX=0.5;exitY=0;exitDx=0;exitDy=0;fontFamily=Times New Roman;" parent="1" edge="1">
          <mxGeometry width="50" height="50" relative="1" as="geometry">
            <mxPoint x="240" y="346" as="sourcePoint" />
            <mxPoint x="240" y="310" as="targetPoint" />
          </mxGeometry>
        </mxCell>
        <mxCell id="6l_aIuPrhvCb97CX6PBp-20" value="" style="endArrow=classic;html=1;rounded=0;exitX=0.25;exitY=0;exitDx=0;exitDy=0;fontFamily=Times New Roman;" parent="1" source="6l_aIuPrhvCb97CX6PBp-18" edge="1">
          <mxGeometry width="50" height="50" relative="1" as="geometry">
            <mxPoint x="220" y="550" as="sourcePoint" />
            <mxPoint x="240" y="350" as="targetPoint" />
          </mxGeometry>
        </mxCell>
        <mxCell id="6l_aIuPrhvCb97CX6PBp-21" value="" style="endArrow=none;html=1;rounded=0;fontSize=24;exitX=0.5;exitY=0;exitDx=0;exitDy=0;fontFamily=Times New Roman;" parent="1" edge="1">
          <mxGeometry width="50" height="50" relative="1" as="geometry">
            <mxPoint x="261.0000000000001" y="257" as="sourcePoint" />
            <mxPoint x="261.0000000000001" y="221" as="targetPoint" />
          </mxGeometry>
        </mxCell>
        <mxCell id="6l_aIuPrhvCb97CX6PBp-23" value="" style="endArrow=classic;html=1;rounded=0;exitX=0.5;exitY=1;exitDx=0;exitDy=0;fontFamily=Times New Roman;" parent="1" source="6l_aIuPrhvCb97CX6PBp-12" edge="1">
          <mxGeometry width="50" height="50" relative="1" as="geometry">
            <mxPoint x="70" y="390" as="sourcePoint" />
            <mxPoint x="280" y="220" as="targetPoint" />
          </mxGeometry>
        </mxCell>
        <mxCell id="6l_aIuPrhvCb97CX6PBp-24" value="T5: 发送结束&lt;br&gt;缓冲区可被循环使用" style="text;html=1;strokeColor=none;fillColor=none;align=center;verticalAlign=middle;whiteSpace=wrap;rounded=0;fontSize=14;fontFamily=Times New Roman;" parent="1" vertex="1">
          <mxGeometry x="330" y="186" width="130" height="30" as="geometry" />
        </mxCell>
        <mxCell id="6l_aIuPrhvCb97CX6PBp-25" value="" style="endArrow=none;html=1;rounded=0;fontSize=24;exitX=0.5;exitY=0;exitDx=0;exitDy=0;fontFamily=Times New Roman;" parent="1" edge="1">
          <mxGeometry width="50" height="50" relative="1" as="geometry">
            <mxPoint x="494" y="257" as="sourcePoint" />
            <mxPoint x="494" y="221" as="targetPoint" />
          </mxGeometry>
        </mxCell>
        <mxCell id="6l_aIuPrhvCb97CX6PBp-26" value="T6: wait()" style="text;html=1;strokeColor=none;fillColor=none;align=center;verticalAlign=middle;whiteSpace=wrap;rounded=0;fontSize=14;fontFamily=Times New Roman;" parent="1" vertex="1">
          <mxGeometry x="430" y="190" width="130" height="30" as="geometry" />
        </mxCell>
        <mxCell id="6l_aIuPrhvCb97CX6PBp-27" value="" style="endArrow=none;html=1;rounded=0;fontSize=24;exitX=0.5;exitY=0;exitDx=0;exitDy=0;fontFamily=Times New Roman;" parent="1" edge="1">
          <mxGeometry width="50" height="50" relative="1" as="geometry">
            <mxPoint x="503" y="257" as="sourcePoint" />
            <mxPoint x="503" y="221" as="targetPoint" />
          </mxGeometry>
        </mxCell>
        <mxCell id="6l_aIuPrhvCb97CX6PBp-28" value="&lt;span style=&quot;font-size: 14px;&quot;&gt;T9:&amp;nbsp; wait() 返回&lt;br&gt;&lt;/span&gt;" style="text;html=1;strokeColor=none;fillColor=none;align=center;verticalAlign=middle;whiteSpace=wrap;rounded=0;fontSize=14;fontFamily=Times New Roman;" parent="1" vertex="1">
          <mxGeometry x="502" y="150" width="120" height="36" as="geometry" />
        </mxCell>
        <mxCell id="6l_aIuPrhvCb97CX6PBp-29" value="" style="endArrow=classic;html=1;rounded=0;exitX=0.5;exitY=1;exitDx=0;exitDy=0;entryX=0.614;entryY=1.065;entryDx=0;entryDy=0;entryPerimeter=0;fontFamily=Times New Roman;" parent="1" source="6l_aIuPrhvCb97CX6PBp-28" target="6l_aIuPrhvCb97CX6PBp-26" edge="1">
          <mxGeometry width="50" height="50" relative="1" as="geometry">
            <mxPoint x="140" y="310" as="sourcePoint" />
            <mxPoint x="190" y="260" as="targetPoint" />
          </mxGeometry>
        </mxCell>
        <mxCell id="6l_aIuPrhvCb97CX6PBp-30" value="" style="endArrow=classic;html=1;rounded=0;strokeWidth=2;fontSize=14;fontFamily=Times New Roman;" parent="1" edge="1">
          <mxGeometry width="50" height="50" relative="1" as="geometry">
            <mxPoint x="275" y="259" as="sourcePoint" />
            <mxPoint x="500" y="309" as="targetPoint" />
          </mxGeometry>
        </mxCell>
      </root>
    </mxGraphModel>
  </diagram>
</mxfile>
